<svg width="151" height="46" viewBox="0 0 151 46" fill="none" xmlns="http://www.w3.org/2000/svg">
<g clip-path="url(#clip0_1017_8773)">
<path d="M23.5 46C36.2025 46 46.5 35.7025 46.5 23C46.5 10.2975 36.2025 0 23.5 0C10.7975 0 0.5 10.2975 0.5 23C0.5 35.7025 10.7975 46 23.5 46Z" fill="url(#paint0_linear_1017_8773)" fill-opacity="0.15"/>
<path d="M41.4688 21.4763C41.6269 18.1629 39.3125 15.9635 36.6963 14.4541L35 24.4375C35.3502 24.3889 35.7068 24.4163 36.0454 24.5181C36.3841 24.6198 36.6968 24.7933 36.9622 25.0269C37.2663 25.3253 37.4481 25.7265 37.4721 26.1519C37.496 26.5773 37.3603 26.9963 37.0916 27.3269C38.7303 27.0538 41.2819 25.4797 41.4688 21.4763Z" fill="url(#paint1_linear_1017_8773)"/>
<path fill-rule="evenodd" clip-rule="evenodd" d="M19.1872 9.86844L17.1747 7.83438C20.2222 7.46063 28.265 7.935 36.0491 12.8153C36.1203 13.2509 36.1203 13.6951 36.0491 14.1306L36.7032 14.4613C37.226 15.3286 37.5704 16.2916 37.7161 17.2938C37.8617 18.296 37.8057 19.3172 37.5513 20.2975C36.8757 23 35.7185 24.1931 35.201 24.4375C34.1588 24.4375 32.3835 25.0413 31.8085 27.715C31.2335 30.3888 30.1266 30.9709 29.6522 30.9278L18.1522 31.0644L10.5622 26.5938L9.46973 17.3434L11.626 14.4684L15.4785 11.3203L18.2241 10.1991L19.1872 9.86844ZM32.7788 13.6563C32.4541 14.0005 32.0753 14.2894 31.6575 14.5116C28.7035 13.8791 27.6325 12.3553 27.6325 12.3553C30.1446 12.2803 32.6295 12.8916 34.82 14.1234C34.153 13.9141 33.4705 13.7579 32.7788 13.6563V13.6563Z" fill="url(#paint2_linear_1017_8773)"/>
<path fill-rule="evenodd" clip-rule="evenodd" d="M31.708 27.715C29.5201 28.7672 27.1207 29.3056 24.693 29.2891C17.4408 29.2891 11.5686 24.7322 11.5686 19.1187C11.5686 14.9644 14.7742 11.3994 19.367 9.81812C10.627 10.3212 3.59766 17.3434 3.59766 26.0116C3.59766 36.0166 12.5173 44.2822 23.4998 44.2822C27.3165 44.2506 31.0559 43.2024 34.3329 41.2456C37.6099 39.2887 40.3062 36.4939 42.1442 33.1487C37.2208 34.2556 31.4061 32.1497 31.708 27.715Z" fill="url(#paint3_linear_1017_8773)"/>
</g>
<path d="M58.6185 32.234C57.8558 32.234 57.2665 32.026 56.8505 31.61C56.4345 31.1767 56.2265 30.5787 56.2265 29.816V15.854C56.2265 15.0567 56.4345 14.4587 56.8505 14.06C57.2665 13.644 57.8558 13.436 58.6185 13.436C59.3985 13.436 59.9878 13.644 60.3865 14.06C60.8025 14.4587 61.0105 15.0567 61.0105 15.854V21.522H61.0625L67.3805 14.554C67.7098 14.2073 68.0565 13.9387 68.4205 13.748C68.8018 13.54 69.2265 13.436 69.6945 13.436C70.4225 13.436 70.9425 13.6267 71.2545 14.008C71.5838 14.372 71.7312 14.8053 71.6965 15.308C71.6792 15.7933 71.4798 16.244 71.0985 16.66L64.8065 23.342V21.392L71.4105 28.854C71.8612 29.3567 72.0865 29.8767 72.0865 30.414C72.0865 30.934 71.9045 31.3673 71.5405 31.714C71.1938 32.0607 70.6738 32.234 69.9805 32.234C69.3912 32.234 68.9145 32.1213 68.5505 31.896C68.2038 31.6533 67.8225 31.298 67.4065 30.83L61.0625 23.732H61.0105V29.816C61.0105 30.5787 60.8112 31.1767 60.4125 31.61C60.0138 32.026 59.4158 32.234 58.6185 32.234ZM77.7787 32.234C77.0507 32.234 76.4873 32.0173 76.0887 31.584C75.69 31.1507 75.4907 30.5267 75.4907 29.712V21.496C75.4907 20.6813 75.69 20.0573 76.0887 19.624C76.4873 19.1907 77.0507 18.974 77.7787 18.974C78.524 18.974 79.096 19.1907 79.4947 19.624C79.9107 20.0573 80.1187 20.6813 80.1187 21.496V29.712C80.1187 30.5267 79.9193 31.1507 79.5207 31.584C79.122 32.0173 78.5413 32.234 77.7787 32.234ZM77.7787 17.128C76.964 17.128 76.3313 16.9373 75.8807 16.556C75.4473 16.1747 75.2307 15.62 75.2307 14.892C75.2307 14.1813 75.4473 13.6353 75.8807 13.254C76.3313 12.8727 76.964 12.682 77.7787 12.682C78.628 12.682 79.2693 12.8727 79.7027 13.254C80.136 13.6353 80.3527 14.1813 80.3527 14.892C80.3527 15.62 80.136 16.1747 79.7027 16.556C79.2693 16.9373 78.628 17.128 77.7787 17.128ZM85.1692 32.234C84.4065 32.234 83.8172 32.0347 83.4012 31.636C83.0025 31.2373 82.8032 30.6567 82.8032 29.894V21.288C82.8032 20.5427 82.9938 19.9707 83.3752 19.572C83.7738 19.1733 84.3372 18.974 85.0652 18.974C85.7932 18.974 86.3478 19.1733 86.7292 19.572C87.1105 19.9707 87.3012 20.5427 87.3012 21.288V22.354H87.0412C87.2145 21.314 87.6565 20.4907 88.3672 19.884C89.0952 19.2773 89.9965 18.9567 91.0712 18.922C91.5738 18.9047 91.9465 19.0347 92.1892 19.312C92.4492 19.572 92.5878 20.066 92.6052 20.794C92.6052 21.418 92.4752 21.912 92.2152 22.276C91.9552 22.64 91.4612 22.8567 90.7332 22.926L90.1352 22.978C89.2165 23.0647 88.5492 23.3247 88.1332 23.758C87.7172 24.174 87.5092 24.798 87.5092 25.63V29.894C87.5092 30.6567 87.3098 31.2373 86.9112 31.636C86.5125 32.0347 85.9318 32.234 85.1692 32.234ZM98.3957 32.286C97.4077 32.286 96.5323 32.104 95.7697 31.74C95.0243 31.376 94.435 30.882 94.0017 30.258C93.5857 29.6167 93.3777 28.8887 93.3777 28.074C93.3777 27.138 93.6203 26.4013 94.1057 25.864C94.591 25.3267 95.371 24.9453 96.4457 24.72C97.5203 24.4773 98.9503 24.356 100.736 24.356H102.166V26.54H100.736C100.06 26.54 99.4963 26.592 99.0457 26.696C98.6123 26.7827 98.2917 26.93 98.0837 27.138C97.8757 27.3287 97.7717 27.58 97.7717 27.892C97.7717 28.2907 97.9103 28.62 98.1877 28.88C98.4823 29.14 98.8983 29.27 99.4357 29.27C99.869 29.27 100.25 29.1747 100.58 28.984C100.926 28.7933 101.204 28.5333 101.412 28.204C101.62 27.8573 101.724 27.4587 101.724 27.008V23.992C101.724 23.368 101.559 22.926 101.23 22.666C100.918 22.406 100.372 22.276 99.5917 22.276C99.1757 22.276 98.7077 22.328 98.1877 22.432C97.6677 22.5187 97.087 22.6833 96.4457 22.926C95.9777 23.0993 95.579 23.1253 95.2497 23.004C94.9203 22.8827 94.6603 22.6747 94.4697 22.38C94.2963 22.0853 94.2097 21.7647 94.2097 21.418C94.227 21.0713 94.3397 20.742 94.5477 20.43C94.773 20.118 95.111 19.8753 95.5617 19.702C96.3937 19.39 97.1563 19.182 97.8497 19.078C98.5603 18.974 99.2103 18.922 99.7997 18.922C101.221 18.922 102.391 19.13 103.31 19.546C104.246 19.9447 104.939 20.5687 105.39 21.418C105.858 22.25 106.092 23.3247 106.092 24.642V29.894C106.092 30.6567 105.91 31.2373 105.546 31.636C105.182 32.0347 104.653 32.234 103.96 32.234C103.249 32.234 102.703 32.0347 102.322 31.636C101.958 31.2373 101.776 30.6567 101.776 29.894V29.218L101.932 29.582C101.845 30.1367 101.646 30.6133 101.334 31.012C101.022 31.4107 100.614 31.7227 100.112 31.948C99.609 32.1733 99.037 32.286 98.3957 32.286ZM111.275 32.234C110.547 32.234 109.992 32.0433 109.611 31.662C109.23 31.2807 109.039 30.7173 109.039 29.972V15.802C109.039 15.0393 109.23 14.4587 109.611 14.06C109.992 13.644 110.495 13.436 111.119 13.436C111.674 13.436 112.107 13.54 112.419 13.748C112.731 13.956 113.078 14.3027 113.459 14.788L121.701 25.084H120.973V15.672C120.973 14.944 121.155 14.3893 121.519 14.008C121.9 13.6267 122.455 13.436 123.183 13.436C123.911 13.436 124.457 13.6267 124.821 14.008C125.202 14.3893 125.393 14.944 125.393 15.672V30.076C125.393 30.7347 125.22 31.2633 124.873 31.662C124.526 32.0433 124.058 32.234 123.469 32.234C122.88 32.234 122.412 32.13 122.065 31.922C121.736 31.6967 121.38 31.35 120.999 30.882L112.757 20.56H113.485V29.972C113.485 30.7173 113.294 31.2807 112.913 31.662C112.549 32.0433 112.003 32.234 111.275 32.234ZM134.774 36.966C133.821 36.966 132.928 36.8967 132.096 36.758C131.264 36.6367 130.545 36.4547 129.938 36.212C129.435 36.0387 129.08 35.7873 128.872 35.458C128.664 35.1287 128.569 34.782 128.586 34.418C128.603 34.054 128.699 33.7247 128.872 33.43C129.063 33.1353 129.314 32.9187 129.626 32.78C129.938 32.6587 130.285 32.6673 130.666 32.806C131.429 33.118 132.122 33.3173 132.746 33.404C133.37 33.508 133.899 33.56 134.332 33.56C135.389 33.56 136.178 33.3347 136.698 32.884C137.235 32.4507 137.504 31.766 137.504 30.83V29.192H137.712C137.452 29.92 136.923 30.518 136.126 30.986C135.329 31.4367 134.462 31.662 133.526 31.662C132.382 31.662 131.385 31.402 130.536 30.882C129.687 30.3447 129.019 29.5993 128.534 28.646C128.066 27.6927 127.832 26.5747 127.832 25.292C127.832 24.3213 127.971 23.446 128.248 22.666C128.525 21.886 128.907 21.2187 129.392 20.664C129.895 20.1093 130.493 19.6847 131.186 19.39C131.897 19.078 132.677 18.922 133.526 18.922C134.497 18.922 135.363 19.1473 136.126 19.598C136.906 20.0487 137.426 20.638 137.686 21.366L137.426 22.432V21.288C137.426 20.5427 137.625 19.9707 138.024 19.572C138.44 19.1733 139.012 18.974 139.74 18.974C140.468 18.974 141.023 19.1733 141.404 19.572C141.803 19.9707 142.002 20.5427 142.002 21.288V30.284C142.002 32.5027 141.378 34.1667 140.13 35.276C138.882 36.4027 137.097 36.966 134.774 36.966ZM134.956 28.256C135.476 28.256 135.918 28.1433 136.282 27.918C136.646 27.6753 136.932 27.3373 137.14 26.904C137.348 26.4533 137.452 25.916 137.452 25.292C137.452 24.356 137.227 23.628 136.776 23.108C136.325 22.588 135.719 22.328 134.956 22.328C134.471 22.328 134.037 22.4493 133.656 22.692C133.275 22.9173 132.98 23.2553 132.772 23.706C132.581 24.1393 132.486 24.668 132.486 25.292C132.486 26.228 132.711 26.956 133.162 27.476C133.613 27.996 134.211 28.256 134.956 28.256ZM146.89 32.156C146.11 32.156 145.486 31.922 145.018 31.454C144.567 30.986 144.342 30.3707 144.342 29.608C144.342 28.8627 144.567 28.2647 145.018 27.814C145.486 27.346 146.11 27.112 146.89 27.112C147.704 27.112 148.328 27.346 148.762 27.814C149.212 28.2647 149.438 28.8627 149.438 29.608C149.438 30.3707 149.212 30.986 148.762 31.454C148.328 31.922 147.704 32.156 146.89 32.156Z" fill="#374151"/>
<defs>
<linearGradient id="paint0_linear_1017_8773" x1="23.5" y1="16.0928" x2="23.5" y2="46.6037" gradientUnits="userSpaceOnUse">
<stop stop-color="#FAD126"/>
<stop offset="1" stop-color="#FAD126" stop-opacity="0"/>
</linearGradient>
<linearGradient id="paint1_linear_1017_8773" x1="37.8031" y1="17.3722" x2="38.8238" y2="29.5694" gradientUnits="userSpaceOnUse">
<stop stop-color="#FAD126"/>
<stop offset="1" stop-color="#FF564E"/>
</linearGradient>
<linearGradient id="paint2_linear_1017_8773" x1="17.7138" y1="10.8172" x2="29.5588" y2="29.6197" gradientUnits="userSpaceOnUse">
<stop stop-color="#FAD126"/>
<stop offset="1" stop-color="#D64942"/>
</linearGradient>
<linearGradient id="paint3_linear_1017_8773" x1="22.5152" y1="19.5787" x2="23.5717" y2="49.9244" gradientUnits="userSpaceOnUse">
<stop stop-color="#FAD126"/>
<stop offset="1" stop-color="#FF564E"/>
</linearGradient>
<clipPath id="clip0_1017_8773">
<rect width="46" height="46" fill="white" transform="translate(0.5)"/>
</clipPath>
</defs>
</svg>
